<svg width="1600" height="900" viewBox="0 0 1600 900" xmlns="http://www.w3.org/2000/svg" role="img" aria-labelledby="title desc">
  <title id="title">Istanbul Bosphorus luxury travel visual</title>
  <desc id="desc">Sunset skyline over Bosphorus with yacht silhouette and warm premium colors.</desc>
  <defs>
    <linearGradient id="sky" x1="0" y1="0" x2="0" y2="1">
      <stop offset="0%" stop-color="#f1b27a"/>
      <stop offset="45%" stop-color="#bf5d4f"/>
      <stop offset="100%" stop-color="#3b1d25"/>
    </linearGradient>
    <linearGradient id="water" x1="0" y1="0" x2="0" y2="1">
      <stop offset="0%" stop-color="#6b2d35"/>
      <stop offset="100%" stop-color="#24121a"/>
    </linearGradient>
  </defs>
  <rect width="1600" height="560" fill="url(#sky)"/>
  <rect y="560" width="1600" height="340" fill="url(#water)"/>
  <circle cx="1120" cy="250" r="105" fill="#ffdeba" opacity=".5"/>
  <path d="M0 540 C350 470, 700 610, 1100 520 C1300 475,1450 530,1600 500 L1600 620 L0 620 Z" fill="#2e161f" opacity=".55"/>
  <g fill="#1e0f17" opacity=".9">
    <rect x="930" y="390" width="200" height="170" rx="10"/>
    <ellipse cx="1030" cy="388" rx="120" ry="62"/>
    <rect x="1008" y="250" width="42" height="150"/>
    <ellipse cx="1029" cy="250" rx="92" ry="45"/>
    <rect x="706" y="360" width="20" height="200"/>
    <polygon points="640,420 790,420 715,352"/>
  </g>
  <g transform="translate(1120,612)">
    <path d="M0 90 H360 L330 140 H20 Z" fill="#efe8e2"/>
    <rect x="108" y="35" width="145" height="55" fill="#f6f1eb"/>
    <rect x="145" y="10" width="72" height="25" fill="#f6f1eb"/>
    <circle cx="70" cy="143" r="12" fill="#b8b3b3"/>
    <circle cx="280" cy="143" r="12" fill="#b8b3b3"/>
  </g>
</svg>
